# xmcd
# 
# Track frame offsets:
#     150
#     12015
#     24130
#     39232
#     51937
#     72197
#     90015
#     101650
#     112179
#     123429
#     143830
#     157632
#     168397
#     183442
# 
# Disc length: 2628
# 
# Revision: 1
# Processed by: cddbd v1.5.2PL0 Copyright (c) Steve Scherf et al.
# Submitted via: fre:ac v1.0.31
# 
DISCID=a10a420e
DTITLE=Various Artist - Merry Christmas Y'all
DYEAR=2004
DGENRE=Christmas
TTITLE0=Tracy - Merry Christmas From Texas Y'all
TTITLE1=Brooks and Dunn - Hangin' 'Round The Mistletoe
TTITLE2=Alan Jackson - I Only Want You For Christmas
TTITLE3=Lonestar - Please Come Home For Christmas
TTITLE4=Sara Evans - Go Tell It On The Mountain
TTITLE5=Diamond Rio - Christmas Spirit
TTITLE6=Vince Gill - Santa Claus Is Coming To Town
TTITLE7=Alabama - Rockin'Around The Christmas Tree
TTITLE8=Aaron Tippin - Rudolph The Red Nosed Reindeer
TTITLE9=Steve Wariner - Silent Night
TTITLE10=Blackhawk - We Three Kings (Star of Wonder)
TTITLE11=Randy Travis - Winter Wonderland
TTITLE12=Mindy NcCready - Santa Baby
TTITLE13=Asleep At The Wheel - Let It Snow, Let It Snow, Let It Snow
EXTD=
EXTT0=
EXTT1=
EXTT2=
EXTT3=
EXTT4=
EXTT5=
EXTT6=
EXTT7=
EXTT8=
EXTT9=
EXTT10=
EXTT11=
EXTT12=
EXTT13=
PLAYORDER=
